<?xml version="1.0" standalone="no"?><!DOCTYPE svg PUBLIC "-//W3C//DTD SVG 1.1//EN" "http://www.w3.org/Graphics/SVG/1.1/DTD/svg11.dtd"><svg t="1594448321749" class="icon" viewBox="0 0 1024 1024" version="1.1" xmlns="http://www.w3.org/2000/svg" p-id="9126" xmlns:xlink="http://www.w3.org/1999/xlink" width="200" height="200"><defs><style type="text/css"></style></defs><path d="M908.647297 65.629743c10.293437 7.487531 14.502295 17.464767 12.631692 29.939893L801.524534 814.106596c-1.558495 9.046027-6.551206 16.060791-14.969946 21.049409-4.365424 2.494821-9.201569 3.745301-14.502295 3.745301-3.430122 0-7.17133-0.783853-11.228739-2.342348l-211.912387-86.541005L435.706895 888.020002c-5.615904 7.17133-13.254885 10.756995-22.924105 10.756995-4.053316 0-7.483438-0.623193-10.293437-1.870604-5.92392-2.182712-10.680247-5.848195-14.265912-10.992355s-5.380544-10.836813-5.380544-17.076934L382.842897 705.575764 787.022239 210.17993 286.943756 642.894166l-184.7784-75.785034c-11.539824-4.365424-17.775852-12.942777-18.711154-25.731034-0.624217-12.472056 4.364401-21.672602 14.969946-27.596522l778.412652-449.088158c4.680603-2.805906 9.66922-4.208858 14.969946-4.208858C898.046868 60.485583 903.658679 62.200644 908.647297 65.629743L908.647297 65.629743zM908.647297 65.629743" p-id="9127"></path></svg>